<svg xmlns="http://www.w3.org/2000/svg" viewBox="0 0 522 62" role="img" aria-labelledby="title desc">
  <title id="title">RAMA Logo</title>
  <desc id="desc">Converted from ASCII art in /home/nomadx/bit/RAMA.txt</desc>
  <rect width="522" height="62" fill="#2b2d42" rx="8" />
  <rect x="6" y="6" width="10" height="10" fill="#ef233c" rx="2" />
  <rect x="16" y="6" width="10" height="10" fill="#ef233c" rx="2" />
  <rect x="26" y="6" width="10" height="10" fill="#ef233c" rx="2" />
  <rect x="36" y="6" width="10" height="10" fill="#ef233c" rx="2" />
  <rect x="46" y="6" width="10" height="10" fill="#ef233c" rx="2" />
  <rect x="56" y="6" width="10" height="10" fill="#ef233c" rx="2" />
  <rect x="66" y="6" width="10" height="10" fill="#ef233c" rx="2" />
  <rect x="76" y="6" width="10" height="10" fill="#ef233c" rx="2" />
  <rect x="146" y="6" width="10" height="10" fill="#ef233c" rx="2" />
  <rect x="156" y="6" width="10" height="10" fill="#ef233c" rx="2" />
  <rect x="166" y="6" width="10" height="10" fill="#ef233c" rx="2" />
  <rect x="176" y="6" width="10" height="10" fill="#ef233c" rx="2" />
  <rect x="186" y="6" width="10" height="10" fill="#ef233c" rx="2" />
  <rect x="196" y="6" width="10" height="10" fill="#ef233c" rx="2" />
  <rect x="246" y="6" width="10" height="10" fill="#ef233c" rx="2" />
  <rect x="256" y="6" width="10" height="10" fill="#ef233c" rx="2" />
  <rect x="266" y="6" width="10" height="10" fill="#ef233c" rx="2" />
  <rect x="276" y="6" width="10" height="10" fill="#ef233c" rx="2" />
  <rect x="346" y="6" width="10" height="10" fill="#ef233c" rx="2" />
  <rect x="356" y="6" width="10" height="10" fill="#ef233c" rx="2" />
  <rect x="366" y="6" width="10" height="10" fill="#ef233c" rx="2" />
  <rect x="376" y="6" width="10" height="10" fill="#ef233c" rx="2" />
  <rect x="436" y="6" width="10" height="10" fill="#ef233c" rx="2" />
  <rect x="446" y="6" width="10" height="10" fill="#ef233c" rx="2" />
  <rect x="456" y="6" width="10" height="10" fill="#ef233c" rx="2" />
  <rect x="466" y="6" width="10" height="10" fill="#ef233c" rx="2" />
  <rect x="476" y="6" width="10" height="10" fill="#ef233c" rx="2" />
  <rect x="486" y="6" width="10" height="10" fill="#ef233c" rx="2" />
  <rect x="6" y="16" width="10" height="10" fill="#ef233c" rx="2" />
  <rect x="16" y="16" width="10" height="10" fill="#ef233c" rx="2" />
  <rect x="26" y="16" width="10" height="10" fill="#ef233c" rx="2" />
  <rect x="36" y="16" width="10" height="10" fill="#ef233c" rx="2" />
  <rect x="66" y="16" width="10" height="10" fill="#ef233c" rx="2" />
  <rect x="76" y="16" width="10" height="10" fill="#ef233c" rx="2" />
  <rect x="86" y="16" width="10" height="10" fill="#ef233c" rx="2" />
  <rect x="96" y="16" width="10" height="10" fill="#ef233c" rx="2" />
  <rect x="126" y="16" width="10" height="10" fill="#ef233c" rx="2" />
  <rect x="136" y="16" width="10" height="10" fill="#ef233c" rx="2" />
  <rect x="146" y="16" width="10" height="10" fill="#ef233c" rx="2" />
  <rect x="156" y="16" width="10" height="10" fill="#ef233c" rx="2" />
  <rect x="186" y="16" width="10" height="10" fill="#ef233c" rx="2" />
  <rect x="196" y="16" width="10" height="10" fill="#ef233c" rx="2" />
  <rect x="206" y="16" width="10" height="10" fill="#ef233c" rx="2" />
  <rect x="216" y="16" width="10" height="10" fill="#ef233c" rx="2" />
  <rect x="246" y="16" width="10" height="10" fill="#ef233c" rx="2" />
  <rect x="256" y="16" width="10" height="10" fill="#ef233c" rx="2" />
  <rect x="266" y="16" width="10" height="10" fill="#ef233c" rx="2" />
  <rect x="276" y="16" width="10" height="10" fill="#ef233c" rx="2" />
  <rect x="286" y="16" width="10" height="10" fill="#ef233c" rx="2" />
  <rect x="296" y="16" width="10" height="10" fill="#ef233c" rx="2" />
  <rect x="326" y="16" width="10" height="10" fill="#ef233c" rx="2" />
  <rect x="336" y="16" width="10" height="10" fill="#ef233c" rx="2" />
  <rect x="346" y="16" width="10" height="10" fill="#ef233c" rx="2" />
  <rect x="356" y="16" width="10" height="10" fill="#ef233c" rx="2" />
  <rect x="366" y="16" width="10" height="10" fill="#ef233c" rx="2" />
  <rect x="376" y="16" width="10" height="10" fill="#ef233c" rx="2" />
  <rect x="416" y="16" width="10" height="10" fill="#ef233c" rx="2" />
  <rect x="426" y="16" width="10" height="10" fill="#ef233c" rx="2" />
  <rect x="436" y="16" width="10" height="10" fill="#ef233c" rx="2" />
  <rect x="446" y="16" width="10" height="10" fill="#ef233c" rx="2" />
  <rect x="476" y="16" width="10" height="10" fill="#ef233c" rx="2" />
  <rect x="486" y="16" width="10" height="10" fill="#ef233c" rx="2" />
  <rect x="496" y="16" width="10" height="10" fill="#ef233c" rx="2" />
  <rect x="506" y="16" width="10" height="10" fill="#ef233c" rx="2" />
  <rect x="6" y="26" width="10" height="10" fill="#ef233c" rx="2" />
  <rect x="16" y="26" width="10" height="10" fill="#ef233c" rx="2" />
  <rect x="26" y="26" width="10" height="10" fill="#ef233c" rx="2" />
  <rect x="36" y="26" width="10" height="10" fill="#ef233c" rx="2" />
  <rect x="66" y="26" width="10" height="10" fill="#ef233c" rx="2" />
  <rect x="76" y="26" width="10" height="10" fill="#ef233c" rx="2" />
  <rect x="86" y="26" width="10" height="10" fill="#ef233c" rx="2" />
  <rect x="96" y="26" width="10" height="10" fill="#ef233c" rx="2" />
  <rect x="126" y="26" width="10" height="10" fill="#ef233c" rx="2" />
  <rect x="136" y="26" width="10" height="10" fill="#ef233c" rx="2" />
  <rect x="146" y="26" width="10" height="10" fill="#ef233c" rx="2" />
  <rect x="156" y="26" width="10" height="10" fill="#ef233c" rx="2" />
  <rect x="186" y="26" width="10" height="10" fill="#ef233c" rx="2" />
  <rect x="196" y="26" width="10" height="10" fill="#ef233c" rx="2" />
  <rect x="206" y="26" width="10" height="10" fill="#ef233c" rx="2" />
  <rect x="216" y="26" width="10" height="10" fill="#ef233c" rx="2" />
  <rect x="246" y="26" width="10" height="10" fill="#ef233c" rx="2" />
  <rect x="256" y="26" width="10" height="10" fill="#ef233c" rx="2" />
  <rect x="266" y="26" width="10" height="10" fill="#ef233c" rx="2" />
  <rect x="276" y="26" width="10" height="10" fill="#ef233c" rx="2" />
  <rect x="286" y="26" width="10" height="10" fill="#ef233c" rx="2" />
  <rect x="296" y="26" width="10" height="10" fill="#ef233c" rx="2" />
  <rect x="306" y="26" width="10" height="10" fill="#ef233c" rx="2" />
  <rect x="316" y="26" width="10" height="10" fill="#ef233c" rx="2" />
  <rect x="326" y="26" width="10" height="10" fill="#ef233c" rx="2" />
  <rect x="336" y="26" width="10" height="10" fill="#ef233c" rx="2" />
  <rect x="346" y="26" width="10" height="10" fill="#ef233c" rx="2" />
  <rect x="356" y="26" width="10" height="10" fill="#ef233c" rx="2" />
  <rect x="366" y="26" width="10" height="10" fill="#ef233c" rx="2" />
  <rect x="376" y="26" width="10" height="10" fill="#ef233c" rx="2" />
  <rect x="416" y="26" width="10" height="10" fill="#ef233c" rx="2" />
  <rect x="426" y="26" width="10" height="10" fill="#ef233c" rx="2" />
  <rect x="436" y="26" width="10" height="10" fill="#ef233c" rx="2" />
  <rect x="446" y="26" width="10" height="10" fill="#ef233c" rx="2" />
  <rect x="476" y="26" width="10" height="10" fill="#ef233c" rx="2" />
  <rect x="486" y="26" width="10" height="10" fill="#ef233c" rx="2" />
  <rect x="496" y="26" width="10" height="10" fill="#ef233c" rx="2" />
  <rect x="506" y="26" width="10" height="10" fill="#ef233c" rx="2" />
  <rect x="6" y="36" width="10" height="10" fill="#ef233c" rx="2" />
  <rect x="16" y="36" width="10" height="10" fill="#ef233c" rx="2" />
  <rect x="26" y="36" width="10" height="10" fill="#ef233c" rx="2" />
  <rect x="36" y="36" width="10" height="10" fill="#ef233c" rx="2" />
  <rect x="46" y="36" width="10" height="10" fill="#ef233c" rx="2" />
  <rect x="56" y="36" width="10" height="10" fill="#ef233c" rx="2" />
  <rect x="66" y="36" width="10" height="10" fill="#ef233c" rx="2" />
  <rect x="76" y="36" width="10" height="10" fill="#ef233c" rx="2" />
  <rect x="126" y="36" width="10" height="10" fill="#ef233c" rx="2" />
  <rect x="136" y="36" width="10" height="10" fill="#ef233c" rx="2" />
  <rect x="146" y="36" width="10" height="10" fill="#ef233c" rx="2" />
  <rect x="156" y="36" width="10" height="10" fill="#ef233c" rx="2" />
  <rect x="166" y="36" width="10" height="10" fill="#ef233c" rx="2" />
  <rect x="176" y="36" width="10" height="10" fill="#ef233c" rx="2" />
  <rect x="186" y="36" width="10" height="10" fill="#ef233c" rx="2" />
  <rect x="196" y="36" width="10" height="10" fill="#ef233c" rx="2" />
  <rect x="206" y="36" width="10" height="10" fill="#ef233c" rx="2" />
  <rect x="216" y="36" width="10" height="10" fill="#ef233c" rx="2" />
  <rect x="246" y="36" width="10" height="10" fill="#ef233c" rx="2" />
  <rect x="256" y="36" width="10" height="10" fill="#ef233c" rx="2" />
  <rect x="266" y="36" width="10" height="10" fill="#ef233c" rx="2" />
  <rect x="276" y="36" width="10" height="10" fill="#ef233c" rx="2" />
  <rect x="306" y="36" width="10" height="10" fill="#ef233c" rx="2" />
  <rect x="316" y="36" width="10" height="10" fill="#ef233c" rx="2" />
  <rect x="346" y="36" width="10" height="10" fill="#ef233c" rx="2" />
  <rect x="356" y="36" width="10" height="10" fill="#ef233c" rx="2" />
  <rect x="366" y="36" width="10" height="10" fill="#ef233c" rx="2" />
  <rect x="376" y="36" width="10" height="10" fill="#ef233c" rx="2" />
  <rect x="416" y="36" width="10" height="10" fill="#ef233c" rx="2" />
  <rect x="426" y="36" width="10" height="10" fill="#ef233c" rx="2" />
  <rect x="436" y="36" width="10" height="10" fill="#ef233c" rx="2" />
  <rect x="446" y="36" width="10" height="10" fill="#ef233c" rx="2" />
  <rect x="456" y="36" width="10" height="10" fill="#ef233c" rx="2" />
  <rect x="466" y="36" width="10" height="10" fill="#ef233c" rx="2" />
  <rect x="476" y="36" width="10" height="10" fill="#ef233c" rx="2" />
  <rect x="486" y="36" width="10" height="10" fill="#ef233c" rx="2" />
  <rect x="496" y="36" width="10" height="10" fill="#ef233c" rx="2" />
  <rect x="506" y="36" width="10" height="10" fill="#ef233c" rx="2" />
  <rect x="6" y="46" width="10" height="10" fill="#ef233c" rx="2" />
  <rect x="16" y="46" width="10" height="10" fill="#ef233c" rx="2" />
  <rect x="26" y="46" width="10" height="10" fill="#ef233c" rx="2" />
  <rect x="36" y="46" width="10" height="10" fill="#ef233c" rx="2" />
  <rect x="66" y="46" width="10" height="10" fill="#ef233c" rx="2" />
  <rect x="76" y="46" width="10" height="10" fill="#ef233c" rx="2" />
  <rect x="86" y="46" width="10" height="10" fill="#ef233c" rx="2" />
  <rect x="96" y="46" width="10" height="10" fill="#ef233c" rx="2" />
  <rect x="126" y="46" width="10" height="10" fill="#ef233c" rx="2" />
  <rect x="136" y="46" width="10" height="10" fill="#ef233c" rx="2" />
  <rect x="146" y="46" width="10" height="10" fill="#ef233c" rx="2" />
  <rect x="156" y="46" width="10" height="10" fill="#ef233c" rx="2" />
  <rect x="186" y="46" width="10" height="10" fill="#ef233c" rx="2" />
  <rect x="196" y="46" width="10" height="10" fill="#ef233c" rx="2" />
  <rect x="206" y="46" width="10" height="10" fill="#ef233c" rx="2" />
  <rect x="216" y="46" width="10" height="10" fill="#ef233c" rx="2" />
  <rect x="246" y="46" width="10" height="10" fill="#ef233c" rx="2" />
  <rect x="256" y="46" width="10" height="10" fill="#ef233c" rx="2" />
  <rect x="266" y="46" width="10" height="10" fill="#ef233c" rx="2" />
  <rect x="276" y="46" width="10" height="10" fill="#ef233c" rx="2" />
  <rect x="346" y="46" width="10" height="10" fill="#ef233c" rx="2" />
  <rect x="356" y="46" width="10" height="10" fill="#ef233c" rx="2" />
  <rect x="366" y="46" width="10" height="10" fill="#ef233c" rx="2" />
  <rect x="376" y="46" width="10" height="10" fill="#ef233c" rx="2" />
  <rect x="416" y="46" width="10" height="10" fill="#ef233c" rx="2" />
  <rect x="426" y="46" width="10" height="10" fill="#ef233c" rx="2" />
  <rect x="436" y="46" width="10" height="10" fill="#ef233c" rx="2" />
  <rect x="446" y="46" width="10" height="10" fill="#ef233c" rx="2" />
  <rect x="476" y="46" width="10" height="10" fill="#ef233c" rx="2" />
  <rect x="486" y="46" width="10" height="10" fill="#ef233c" rx="2" />
  <rect x="496" y="46" width="10" height="10" fill="#ef233c" rx="2" />
  <rect x="506" y="46" width="10" height="10" fill="#ef233c" rx="2" />
</svg>
